<svg xmlns="http://www.w3.org/2000/svg" width="1024" height="1024"><path d="M250 657c-5-29-16-56-36-77a84 84 0 00-45-25c-9-2-20-4-27-13-5-6 5-11 10-11 14 0 27 7 40 14 23 13 41 35 51 61 4 8 5 17 7 25l6 25z" fill="#754a23"/><path d="M339 512c-22 36-72 42-89 82-7 22 6 62 6 62s24-4 45-13c20-8 33-20 46-34 12-21 8-46 5-69-3-10-5-21-13-28zm-59 511c-7 0-14 1 0 0z" fill="#8ac43c"/><path d="M235 1024c-74-3-150-33-195-95-42-58-51-138-27-205 18-44 56-83 104-90 41-8 82 3 120 18 23 11 32-3 69-10 36-8 108-2 145 37 47 50 74 125 55 194-21 69-84 113-148 134-40 13-82 18-123 17zM64 756c8-19 11-42 30-55 13-8 30-40 2-35a82 82 0 00-45 73c0 7 4 19 13 17z" fill="#ec1a23"/><path d="M57 753c-9-7-6-33 5-55 10-16 31-34 41-32 6 1 8 4 7 10-1 8-7 17-16 25-11 9-17 18-24 38-7 18-8 19-13 14z" fill="#fff" paint-order="stroke markers fill"/><path d="M856 829l-12 11c-5 8-14 10-26 6l-5 25s-50 41-61-2c-14-55 24-86 67-107 2 0 17 22 27 32 11 11 16 19 16 24-1 5-3 9-6 11z" fill="#4f6e34"/><path d="M850 767s13 48 15 79c-20-15-27-45-37-65 0-12-21 2-8 11 12 23 32 73 32 73s-11-2-21-9c-3-3-31-27-38-31-8-5-20-11-7 9 6 11 28 38 42 57-26-10-91-9-91-9l-5 26c44 6 99 12 138 34 33 19 63 43 91 68 8 11 24 20 37 9 19-10 30-32 25-52-2-15-26-10-35-20-26-15-50-35-70-56-20-27-30-58-42-88-4-14-8-42-8-42z" fill="#90d651"/><path d="M766 512c-17 10-38 1-56 0-17 9-32 18-52 9-23-1-21 29-45 28-10 16-24 31-39 41-22 5-20 26-39 35-10 14 4 30-9 43 4 19 0 38 12 55-2 18 25 41-6 51-5 13-11 26-20 39 9 18 4 37 14 54 0 18 23 26 24 45 18 9 15 40 43 33 13 14 33 3 41 23 17 4 37 6 54-3 27-6 27-33 44-49 11-10-5-22 12-29 1-20 41-16 40-41 9-8 28-8 26-22 18-14-1-37 26-39 24 1 34-25 58-14 13-12 32-18 37-35 23-3 16-28 36-36 10-20 2-43 4-65 3-23-26-29-32-49-11-11-29-6-35-23-19-2-19-32-43-22-21-3-40-13-60-9-16-1-20-18-35-20z" fill="#4a732f"/><g><path d="M37 313c-11 47 24 89 62 113 55 34 122 55 187 46 61-6 128-30 158-87 9-10 15-50-5-28-45-1-402-44-402-44z" fill="#c6902c"/><path d="M37 268c-18 23-1 53 15 72 29 32 67 56 106 73 46 15 96 22 144 19 66-8 128-50 161-107 11-15 7-56-17-31-181-21-407-28-407-28z" fill="#804000"/><path d="M39 277c25 30 53 63 91 76 33 7 67-1 98-12 73-45-189-64-189-64zm269 74c62 17 78-6 125-38 18-18 21-18 31-27 15-11-3-37-8-31" fill="red"/><path d="M349 376c32 17 43 5 66-113 0 0-238-18-337-19-17 8-39 9-56 1-12 20-30 37-9 38 64 2 104 18 183 36 79 19 121 40 153 57z" fill="#f2c802"/><path d="M79 243c-2 31-1 69 24 90 18 15 49 19 62-5 12-18 27-38 26-61-38-3-75-14-111-26z" fill="#00c200"/><path d="M0 221c3 14 31 10 16 26 2 25 41 24 56 10-11-39-31-42-72-36zm192 51c-7 15-27 40-10 54 14 5 31-15 30 5 8 12 35-4 26 18 15 31 24-20 29-19 8 25 32 8 24-11l7 7c18 16 35-7 54-8 14 10 8-26 28-18 22-6 15 43 28 17 3 10 15 48 17 19-9-24 17-17 30-13-11-20 4-46 3-67 0 0-184 18-266 16z" fill="#80ff00"/><path d="M464 191c-10 18-14 41-31 55-22 7-7 22 9 18 24-1 45 32 66 16 13-34-10-78-44-89z" fill="#00c200"/><path d="M243 34c-53 1-99 10-141 38-41 28-77 73-71 123s33 79 100 93c68 13 209 19 270-6 62-25 65-50 64-93-2-42-18-81-59-110-41-30-110-46-163-45z" fill="#c6902c"/><path d="M157 364c41 14 85 23 129 16 12-4 25-3 37-6 4-7-8-7-13-7-36-1-72 9-109 2z"/></g><g><path d="M1019 199l2 27-248 193-260-177s1-23 5-31c3-6 13-16 30-27 63-35 121-73 185-105 20-7 46-11 64 0 56 26 115 51 169 79 30 16 47 30 53 41z" fill="#f0b543"/><path d="M1021 232c0 20-13 38-29 49a1976 1976 0 01-176 135c-9 6-22 8-31 6l-3-45c20 2 37-9 54-19 45-28 85-63 126-97 15-13 32-25 47-39 5-3 9-16 11-15 3 8 1 16 1 25z" fill="#dea435"/><path d="M613 332c-28-18-57-34-83-54a52 52 0 01-12-61c1 16 18 23 30 31l211 121c6 6 24 2 24 13l2 41c-21 0-39-11-57-20z" fill="#f5c658"/><path d="M620 201c0 20-28 32-45 32-22 1-49-26-20-40 11-8 28-19 40-8l25 15zm25-58c15 0 54 17 31 32-14 13-36 27-53 10-11-4-33-16-12-24 12-6 21-15 34-18zm102-15c-11 12-27 20-41 28-17 1-35-10-45-23 18-12 38-34 61-23 9 5 20 9 25 18zm-8-21c-21-5-3-22 10-21 14-5 51-8 50 11-14 9-28 31-46 18zM598 255c-9-18 23-29 36-38 19-2 46 10 52 30a76 76 0 01-51 31c-14-4-25-15-37-23zm58-50c1-17 27-25 41-33 18 4 40 9 49 27-1 18-28 31-45 35-16-8-33-16-45-29zm140-54c22 10-6 29-17 34-20 14-38-6-55-14-19-17 20-29 33-32 14-3 28 5 39 12zm25-47c12 8 46 11 37 30a40 40 0 01-54 9c-16-4-36-22-11-31 8-5 18-13 28-8zm-87 162c13 6 39 19 17 32-16 10-32 31-52 18-11-11-47-18-33-39 17-10 38-32 59-16zm86-29c-9 18-30 28-49 33-17-4-42-14-48-32 9-16 29-29 48-30 17 5 34 15 47 27zm30-20c-19 13-41-2-59-9-20-15 9-30 22-36 21-9 45 4 61 17 7 14-16 21-24 28zm-6-57c7-22 38-33 57-20 16 5 35 19 15 33-16 18-39 9-56-3zm143 56c-14 12-31-4-44-10-14-4-33-20-13-31 19-20 44-3 60 11 10 9 7 22-3 30zm-34 16c-8 21-20 27-33 34-22 9-45-14-61-27l40-35zm-92 81c-23 10-41-14-62-21-18-19 15-32 28-40 18-6 33 7 48 13 27 10 15 35-6 43zm-46 1c25 21-4 40-23 39-18 3-55-16-47-31 11-13 42-26 70-8z" fill="#d49e33"/><path d="M540 212c10-26 44-40 69-26 18 2 16 34-2 18a35 35 0 00-50-5c-6 3-12 8-17 13zm136-57c17 1 2 28-3 8-18-20-48-7-63 10-20-1 8-16 14-20 17-14 36-10 52 2zm71-27c-19 9-35-22-55-9-8 3-27 24-29 13 14-11 30-23 47-25 13 2 30 9 37 21zm54-33c-19 4-39-12-56 1-10 10-26 0-8-5 18-8 41-13 59-2 3 0 9 3 5 6zM633 229c-15 0-28 25-36 23 1-20 28-33 45-35 15 6 38 9 43 26-2 18-19-11-29-10-7-4-15-6-23-4zm31-37c15-12 34-26 54-14 13 1 41 25 22 33-6-20-27-30-47-27-16-1-24 26-37 20-2-5 3-10 8-12zm132-41c16 2 4 25-4 8a53 53 0 00-67 4c-21 3 7-17 15-19 19-11 40-5 56 7zm47-38c13-3 23 26 5 12-19-13-48-17-64 2-1-20 31-30 46-19zm-82 173c-17 12-29-22-49-15-20-4-33 20-49 20-1-20 26-30 42-35 19-1 33 14 48 21zm26-72c13 6 44 21 24 36-14-15-35-36-57-25-8 5-26 26-30 13 11-18 33-34 54-28zm84-12c-15-20-49-31-69-12-5 8-26 16-15 0 14-15 37-27 57-17 10 5 44 13 27 29zm42-56c17-3 13 34 1 11-16-17-48-16-61 4-19 0 3-23 13-23 17-8 33 0 47 8zm-98 168c13 8 14 28 0 12-16-15-46-21-58 1-13 14-18-1-6-11 23-23 45-14 64-2zm48-41c-19-15-49-10-59 12-21 6-6-19 5-22 15-15 37-16 54-4 10 8 40 16 25 31zm90-41c-5 21-22 0-32-6-23-17-38-3-52 11-17 9-15-8 1-19 28-27 42-18 83 14zm40-23c-8-18-29-37-49-30-6 7-27 24-21 3 13-23 43-18 60-2 9 6 19 18 10 29z" fill="#b58325"/></g></svg>