<svg xmlns="http://www.w3.org/2000/svg" xmlns:xlink="http://www.w3.org/1999/xlink" height="512" width="1024"><g id="a"><path d="M152 383h130v52H152z" fill="#fff"/><path d="M292 388s-3 43-16 59c-14 18-36 25-63 30-27-7-42-12-55-25-15-15-30-65-30-65l24-4s7 28 17 38c11 11 32 18 44 19 11 0 22-8 31-14 13-9 31-34 31-34z" fill="#806600" stroke="#000" stroke-width="10"/><path d="M268 401l21 11m-30-1l23 24m-32-14l19 33m-31-24l11 37m-25-30l8 36m-27-34l1 36m-12-39l-4 34m-12-42l-7 34m-1-40l-17 24m10-34l-19 17m14-28l-22 10" fill="none" stroke="#000" stroke-width="10"/></g><path d="M216 439l-5-29m-23-8l43-3-20 11z" fill="none" stroke="#000" stroke-width="10"/><path d="M189 355c-15 5-38 15-51 26l-57 4c-2 5 3 4 6 5l66 7c43-12 79-17 123-6l71-15c2-5-3-4-6-4l-47 2a99 99 0 00-60-22c-12 4-26 5-40 3a201 200 86 01-5 0z" id="b" color="#000"/><path d="M58 133c8-31 40-45 69-54 32-10 65-17 98-28 42-13 89-24 131-7 33 14 59 41 84 66 16 18 31 45 17 69-12 21-33 37-55 46-20 6-41 8-60 10l-34 20 8 48c-31 14-62 30-96 30-38-4-73-19-107-34l-1-85c-12-19-23-36-39-50-8-8-18-18-15-31z" id="c" fill="#fff" stroke="#000" stroke-width="12" stroke-linecap="round" stroke-linejoin="round" paint-order="markers fill stroke"/><g id="d" fill="none" stroke="#000" stroke-width="12" stroke-linecap="round" paint-order="markers fill stroke"><path d="M112 214s66 27 102 34c31 7 92 9 92 9" stroke-linejoin="round"/><path d="M140 148s-9 23-7 34c3 18 26 49 26 49m21-44s-6 16-4 24c3 12 21 32 21 32"/></g><use xlink:href="#a" transform="translate(512 6)" width="100%" height="100%"/><use xlink:href="#b" transform="rotate(4 471 7707)" width="100%" height="100%"/><path d="M728 443l-5-21m-23-20l43-3 1 10-21 11-21-8z" fill="none" stroke="#000" stroke-width="10"/><use xlink:href="#c" transform="rotate(-2 516 -14482)" width="100%" height="100%"/><use xlink:href="#d" transform="translate(512)" width="100%" height="100%"/></svg>