<?xml version="1.0" encoding="UTF-8" standalone="no"?>
<!-- Created with Inkscape (http://www.inkscape.org/) -->

<svg
   xmlns:dc="http://purl.org/dc/elements/1.1/"
   xmlns:cc="http://creativecommons.org/ns#"
   xmlns:rdf="http://www.w3.org/1999/02/22-rdf-syntax-ns#"
   xmlns:svg="http://www.w3.org/2000/svg"
   xmlns="http://www.w3.org/2000/svg"
   xmlns:sodipodi="http://sodipodi.sourceforge.net/DTD/sodipodi-0.dtd"
   xmlns:inkscape="http://www.inkscape.org/namespaces/inkscape"
   width="512"
   height="512"
   viewBox="0 0 135.46666 135.46666"
   version="1.1"
   id="svg8"
   inkscape:version="0.92.2 5c3e80d, 2017-08-06"
   sodipodi:docname="adams-apple.svg">
  <defs
     id="defs2" />
  <sodipodi:namedview
     id="base"
     pagecolor="#ffffff"
     bordercolor="#666666"
     borderopacity="1.0"
     inkscape:pageopacity="0.0"
     inkscape:pageshadow="2"
     inkscape:zoom="0.24748737"
     inkscape:cx="-85.459314"
     inkscape:cy="-71.462985"
     inkscape:document-units="mm"
     inkscape:current-layer="layer1"
     showgrid="false"
     inkscape:window-width="1440"
     inkscape:window-height="855"
     inkscape:window-x="0"
     inkscape:window-y="1"
     inkscape:window-maximized="1"
     units="px" />
  <metadata
     id="metadata5">
    <rdf:RDF>
      <cc:Work
         rdf:about="">
        <dc:format>image/svg+xml</dc:format>
        <dc:type
           rdf:resource="http://purl.org/dc/dcmitype/StillImage" />
        <dc:title></dc:title>
      </cc:Work>
    </rdf:RDF>
  </metadata>
  <g
     inkscape:label="Layer 1"
     inkscape:groupmode="layer"
     id="layer1"
     transform="translate(0,-161.53336)">
    <g
       id="g964"
       transform="matrix(0.37447663,0,0,0.37447663,23.820695,162.30404)">
      <path
         style="fill:#8ac43c;stroke-width:0.26458335"
         d="m 105.34414,346.3865 c -9.15322,-0.47533 -19.3631,-1.55229 -27.26491,-2.87592 -44.29987,-7.42066 -81.26661,-30.20719 -102.869053,-63.40912 -15.331773,-23.56421 -22.790766,-52.25724 -21.392711,-82.29287 1.270265,-27.29024 7.469368,-45.84838 21.809134,-65.28962 13.65341,-18.5107 31.31514,-29.49287 53.39489,-33.20126 6.76067,-1.13549 9.7039,-1.34482 18.90807,-1.34482 9.464,0 12.4539,0.2216 19.88965,1.47418 8.86932,1.49406 15.20063,3.28482 31.31083,8.85601 13.61182,4.70721 15.6594,5.37571 16.0299,5.23355 0.60209,-0.23105 -1.99417,-10.71164 -4.28983,-17.31725 C 103.72199,75.6512 91.50775,60.72262 74.81968,52.15753 71.24964,50.32523 68.12276,49.34407 62.67946,48.34815 56.3292,47.1863 54.33837,46.63782 51.50143,45.26856 c -1.99545,-0.96311 -2.90085,-1.60084 -4.3926,-3.094 -1.03349,-1.03447 -2.06648,-2.24485 -2.29553,-2.68975 -0.38359,-0.74505 -0.37923,-0.89127 0.0553,-1.85209 2.7897,-6.16915 13.86356,-5.13113 29.4525,2.76077 7.45556,3.77437 12.19694,7.09129 17.60051,12.31272 8.08122,7.80884 14.11581,16.76489 18.33332,27.20886 1.30303,3.22673 1.91229,3.69409 2.24196,1.71979 0.37569,-2.24989 1.77454,-6.44405 3.05373,-9.15594 1.92584,-4.0828 4.36078,-7.55401 7.80407,-11.12545 4.37266,-4.5354 9.47078,-8.43004 17.57594,-13.42689 14.89472,-9.18263 16.61019,-10.35777 21.99968,-15.07036 3.23559,-2.82919 6.018,-6.00755 8.25498,-9.42969 0.54695,-0.83675 1.0899,-1.52136 1.20652,-1.52136 0.46405,0 2.89222,2.87771 3.79523,4.49792 2.972,5.3323 5.15292,13.74396 6.16891,23.79289 0.45902,4.54042 0.52821,14.4359 0.12591,18.01128 -1.02992,9.15293 -2.91839,13.69332 -7.79809,18.74882 -2.45541,2.54387 -4.8418,4.44996 -10.10155,8.06846 -5.67071,3.90124 -9.42235,7.37002 -8.50867,7.86719 0.18437,0.10032 1.46631,0.0128 2.84875,-0.19458 9.16238,-1.37419 21.32595,-1.80311 29.35374,-1.0351 36.46888,3.48892 63.30665,24.37212 82.5632,64.24464 7.16098,14.82747 11.17755,28.4406 12.87971,43.65242 0.62988,5.62919 0.62916,18.85442 -0.003,24.49027 -1.35357,12.09933 -4.26994,22.00455 -9.63587,32.72767 -8.91983,17.82498 -24.31606,34.4007 -43.98652,47.35621 -27.64096,18.2051 -60.78076,28.88612 -98.95415,31.89303 -3.56587,0.28088 -22.28983,0.54232 -25.79688,0.36021 z M -5.37222,176.54804 c 1.1647,-0.60229 1.93883,-2.41556 3.40446,-7.97444 2.09808,-7.95758 3.75693,-12.10938 6.38746,-15.98661 0.63341,-0.93359 3.62559,-4.23079 6.64929,-7.3271 9.0968,-9.31524 12.44842,-13.31092 14.14227,-16.85993 2.06069,-4.31763 1.26465,-6.86811 -2.69627,-8.6388 -1.65974,-0.74197 -4.82131,-0.79383 -7.11181,-0.11664 -6.66588,1.97076 -14.45293,8.82705 -20.3246,17.89527 -10.17287,15.71099 -11.968124,33.94536 -3.80315,38.62839 1.53382,0.87973 2.23261,0.95891 3.35235,0.37986 z m 125.59367,-64.31523 c -0.0879,-0.0879 -0.31613,-0.0973 -0.50713,-0.0209 -0.21106,0.0845 -0.14838,0.14715 0.15986,0.15985 0.2789,0.0115 0.43519,-0.0511 0.34727,-0.13896 z m 1.05833,-0.26458 c -0.0879,-0.0879 -0.31612,-0.0973 -0.50713,-0.0209 -0.21106,0.0845 -0.14838,0.14715 0.15986,0.15985 0.2789,0.0115 0.43519,-0.0511 0.34727,-0.13897 z m 1.65915,-0.36931 c 0.53173,-0.1703 0.55769,-0.21336 0.13229,-0.21961 -0.29104,-0.004 -0.76729,0.0945 -1.05833,0.21961 -0.67421,0.28972 0.0214,0.28972 0.92604,0 z m 1.51585,-0.42444 c -0.0879,-0.0879 -0.31612,-0.0973 -0.50713,-0.0209 -0.21106,0.0845 -0.14838,0.14715 0.15986,0.15985 0.2789,0.0115 0.43519,-0.0511 0.34727,-0.13897 z m 1.85208,-0.52917 c -0.0879,-0.0879 -0.31612,-0.0973 -0.50712,-0.0209 -0.21106,0.0845 -0.14838,0.14715 0.15986,0.15985 0.2789,0.0115 0.43519,-0.051 0.34726,-0.13897 z m 1.05834,-0.26458 c -0.0879,-0.0879 -0.31613,-0.0973 -0.50713,-0.0209 -0.21106,0.0845 -0.14838,0.14715 0.15986,0.15985 0.2789,0.0115 0.43519,-0.0511 0.34727,-0.13897 z m 1.05833,-0.26458 c -0.0879,-0.0879 -0.31612,-0.0973 -0.50713,-0.0209 -0.21105,0.0845 -0.14837,0.14716 0.15987,0.15985 0.27889,0.0115 0.43518,-0.051 0.34726,-0.13896 z m 1.52686,-0.36932 c 0.33353,-0.14333 0.38245,-0.22739 0.13229,-0.22739 -0.21828,0 -0.635,0.10233 -0.92604,0.22739 -0.33354,0.14333 -0.38246,0.2274 -0.13229,0.2274 0.21828,0 0.635,-0.10233 0.92604,-0.2274 z m 1.38356,-0.42443 c -0.0879,-0.0879 -0.31613,-0.0973 -0.50713,-0.0209 -0.21106,0.0845 -0.14838,0.14716 0.15986,0.15985 0.2789,0.0115 0.43519,-0.051 0.34727,-0.13896 z m 1.05833,-0.26459 c -0.0879,-0.0879 -0.31612,-0.0973 -0.50713,-0.0209 -0.21105,0.0845 -0.14837,0.14715 0.15987,0.15985 0.27889,0.0115 0.43518,-0.0511 0.34726,-0.13897 z m 2.58518,-0.66952 c 0.36327,-0.15897 0.23884,-0.17892 -0.39687,-0.0636 -0.50933,0.0923 -1.16417,0.27212 -1.4552,0.39948 -0.36327,0.15896 -0.23884,0.17892 0.39686,0.0636 0.50933,-0.0924 1.16417,-0.27212 1.45521,-0.39948 z m 1.38356,-0.38881 c -0.0879,-0.0879 -0.31612,-0.0973 -0.50713,-0.0209 -0.21105,0.0845 -0.14837,0.14715 0.15987,0.15985 0.27889,0.0115 0.43518,-0.0511 0.34726,-0.13897 z m 1.65915,-0.36931 c 0.53173,-0.1703 0.55769,-0.21336 0.13229,-0.21961 -0.29104,-0.004 -0.76729,0.0945 -1.05833,0.21961 -0.67421,0.28972 0.0214,0.28972 0.92604,0 z m 1.98438,-0.52917 c 0.33353,-0.14333 0.38245,-0.22739 0.13229,-0.22739 -0.21828,0 -0.635,0.10233 -0.92604,0.22739 -0.33354,0.14333 -0.38245,0.22739 -0.1323,0.22739 0.21828,0 0.635,-0.10232 0.92605,-0.22739 z m 1.38355,-0.42444 c -0.0879,-0.0879 -0.31612,-0.0973 -0.50712,-0.0209 -0.21106,0.0845 -0.14838,0.14715 0.15986,0.15985 0.2789,0.0115 0.43519,-0.051 0.34726,-0.13897 z m 1.05834,-0.26458 c -0.0879,-0.0879 -0.31613,-0.0973 -0.50713,-0.0209 -0.21106,0.0845 -0.14838,0.14715 0.15986,0.15985 0.2789,0.0115 0.43519,-0.0511 0.34727,-0.13897 z m 1.05833,-0.26458 c -0.0879,-0.0879 -0.31612,-0.0973 -0.50713,-0.0209 -0.21105,0.0845 -0.14837,0.14716 0.15987,0.15985 0.27889,0.0115 0.43518,-0.051 0.34726,-0.13896 z m 1.52686,-0.36932 c 0.33353,-0.14333 0.38245,-0.22739 0.13229,-0.22739 -0.21827,0 -0.635,0.10233 -0.92604,0.22739 -0.33354,0.14333 -0.38246,0.2274 -0.13229,0.2274 0.21828,0 0.635,-0.10233 0.92604,-0.2274 z m 1.38356,-0.42443 c -0.0879,-0.0879 -0.31613,-0.0973 -0.50713,-0.0209 -0.21106,0.0845 -0.14838,0.14716 0.15986,0.15985 0.2789,0.0115 0.43519,-0.051 0.34727,-0.13896 z m 1.05833,-0.26459 c -0.0879,-0.0879 -0.31612,-0.0973 -0.50713,-0.0209 -0.21105,0.0845 -0.14837,0.14715 0.15987,0.15985 0.27889,0.0115 0.43518,-0.0511 0.34726,-0.13897 z m 1.05833,-0.26458 c -0.0879,-0.0879 -0.31612,-0.0973 -0.50712,-0.0209 -0.21106,0.0845 -0.14838,0.14715 0.15986,0.15985 0.2789,0.0115 0.43519,-0.051 0.34726,-0.13897 z m 1.05834,-0.26458 c -0.0879,-0.0879 -0.31613,-0.0973 -0.50713,-0.0209 -0.21106,0.0845 -0.14838,0.14716 0.15986,0.15985 0.2789,0.0115 0.43519,-0.051 0.34727,-0.13896 z m 1.52686,-0.36932 c 0.33353,-0.14333 0.38245,-0.22739 0.13229,-0.22739 -0.21828,0 -0.635,0.10233 -0.92604,0.22739 -0.33354,0.14333 -0.38246,0.2274 -0.1323,0.2274 0.21828,0 0.635,-0.10233 0.92605,-0.2274 z m 1.38355,-0.42443 c -0.0879,-0.0879 -0.31612,-0.0973 -0.50712,-0.0209 -0.21106,0.0845 -0.14838,0.14716 0.15986,0.15985 0.2789,0.0115 0.43519,-0.051 0.34726,-0.13896 z m 1.05834,-0.26459 c -0.0879,-0.0879 -0.31613,-0.0973 -0.50713,-0.0209 -0.21106,0.0845 -0.14838,0.14715 0.15986,0.15985 0.2789,0.0115 0.43519,-0.0511 0.34727,-0.13897 z m 1.52686,-0.36931 c 0.33353,-0.14333 0.38245,-0.22739 0.13229,-0.22739 -0.21828,0 -0.635,0.10232 -0.92604,0.22739 -0.33354,0.14333 -0.38246,0.22739 -0.1323,0.22739 0.21828,0 0.635,-0.10232 0.92605,-0.22739 z"
         id="path920"
         inkscape:connector-curvature="0" />
      <path
         sodipodi:nodetypes="csssssssscccscccsscccscssccscc"
         style="fill:#ec1a23;stroke-width:0.26458335"
         d="m 105.34415,346.3865 c -9.15322,-0.47533 -19.36311,-1.55229 -27.26491,-2.87592 -44.29988,-7.42066 -81.26662,-30.20719 -102.86906,-63.40912 -15.33177,-23.56421 -22.79077,-52.25724 -21.39271,-82.29287 1.27026,-27.29024 7.46937,-45.84838 21.80913,-65.28962 13.65341,-18.5107 31.31514,-29.49287 53.3949,-33.20127 6.76067,-1.13549 9.7039,-1.34482 18.90806,-1.34482 9.46401,0 12.4539,0.2216 19.88965,1.47418 8.86933,1.49407 15.20064,3.28483 31.31083,8.85602 13.61183,4.70721 15.65941,5.37571 16.02991,5.23355 10.48032,-0.0235 20.1046,-5.81572 33.39014,-8.84342 13.43038,-3.18694 28.53902,-3.82338 39.72597,-3.03126 36.46887,3.48892 63.30664,24.37212 82.5632,64.24464 7.16098,14.82747 11.17754,28.4406 12.87971,43.65242 0.62987,5.62919 0.62915,18.85442 -0.003,24.49027 -1.35358,12.09933 -4.26995,22.00455 -9.63588,32.72767 -8.91982,17.82498 -24.31606,34.4007 -43.98651,47.35621 -27.64096,18.2051 -60.78077,28.88612 -98.95416,31.89303 -3.56587,0.28088 -22.28983,0.54232 -25.79688,0.36021 z M -5.37222,176.54804 c 1.16471,-0.60229 1.93883,-2.41556 3.40447,-7.97444 2.09807,-7.95758 3.75692,-12.10938 6.38745,-15.98661 0.63341,-0.93359 3.62559,-4.23079 6.64929,-7.3271 9.09681,-9.31524 12.44842,-13.31092 14.14227,-16.85993 2.06069,-4.31763 1.26466,-6.86811 -2.69626,-8.6388 -1.65975,-0.74197 -4.82132,-0.79383 -7.11182,-0.11664 -6.66588,1.97076 -14.45293,8.82705 -20.3246,17.89527 -10.17286,15.71099 -11.96812,33.94536 -3.80314,38.62839 1.53381,0.87973 2.2326,0.95891 3.35234,0.37986 z"
         id="path918"
         inkscape:connector-curvature="0" />
      <path
         style="fill:#754a23;stroke-width:0.26458335"
         d="m 115.15995,113.53663 c -0.0491,-0.16976 -0.51739,-2.21366 -1.04063,-4.54199 -1.95407,-8.69502 -4.49307,-15.961646 -8.22777,-23.547916 C 98.496403,70.424994 88.135217,59.557312 74.571823,52.595961 71.00179,50.763658 67.874907,49.782498 62.431602,48.78658 c -6.350251,-1.161852 -8.34109,-1.710336 -11.178024,-3.079589 -1.995453,-0.96311 -2.900852,-1.600843 -4.392605,-3.094008 -1.033483,-1.034463 -2.066472,-2.24485 -2.29553,-2.689749 -0.38359,-0.745049 -0.37923,-0.891263 0.05526,-1.852084 2.789706,-6.169155 13.863566,-5.131133 29.452506,2.760769 7.455556,3.774371 12.196937,7.091283 17.600504,12.312716 8.050538,7.77919 13.986167,16.561986 18.231047,26.975999 0.66019,1.61967 1.37149,3.13842 1.58066,3.37502 0.20917,0.2366 1.43526,4.8205 2.72466,10.18646 4.27611,17.795696 4.55535,18.884396 4.84348,18.884396 0.6685,0 -0.14816,0.33832 -1.91166,0.79193 -1.37462,0.35359 -1.91712,0.40236 -1.98194,0.17819 z"
         id="path916"
         inkscape:connector-curvature="0" />
    </g>
  </g>
</svg>
