<svg xmlns="http://www.w3.org/2000/svg" width="146" height="48" viewBox="0 0 38.629 12.7"><path d="M31.456 3.616c-.125-.626-.375-1.248-.83-1.707-.277-.27-.616-.505-1.006-.566-.223-.038-.471-.084-.616-.275-.117-.128.108-.26.227-.245.321.002.618.154.897.298.534.294.939.797 1.16 1.362.091.177.113.38.167.571.045.184.088.369.137.552-.045.005-.09.012-.136.01z" fill="#754a23"/><path d="M33.467.395c-.493.8-1.628.935-2.017 1.822-.16.501.142 1.389.142 1.389s.546-.085 1.01-.28c.466-.196.756-.468 1.056-.777.26-.462.184-1.029.103-1.53-.054-.222-.11-.471-.294-.624zm-1.324 11.382c-.163.014-.336.026 0 0z" fill="#8ac43c"/><path d="M31.11 11.8c-1.677-.051-3.412-.728-4.425-2.115-.947-1.289-1.162-3.068-.615-4.562.401-.994 1.263-1.858 2.358-2.007.938-.172 1.861.066 2.733.402.521.243.728-.073 1.557-.233.83-.16 2.455-.047 3.29.831 1.073 1.124 1.68 2.797 1.256 4.33-.466 1.523-1.916 2.514-3.369 2.982a8.196 8.196 0 01-2.785.373zM27.22 5.83c.188-.42.266-.928.688-1.213.307-.18.673-.908.042-.787-.621.267-1.02.968-1.026 1.631.005.153.101.416.296.37z" fill="#ec1a23"/><path d="M27.06 5.77c-.197-.17-.137-.74.13-1.22.208-.375.704-.761.924-.72.133.025.17.077.157.22-.017.176-.151.378-.374.56-.246.203-.365.388-.54.84-.158.406-.175.425-.297.32z" fill="#fff" paint-order="stroke markers fill"/><text style="line-height:1.25;-inkscape-font-specification:'American Typewriter, Bold';font-variant-ligatures:normal;font-variant-caps:normal;font-variant-numeric:normal;font-feature-settings:normal;text-align:start" x="1.112" y="224.31" transform="matrix(.7588 0 0 1.31787 0 -284.3)" font-weight="700" font-size="11.18" font-family="American Typewriter" letter-spacing="0" word-spacing="0" fill="#e3c0a0" stroke="#000" stroke-width=".175"><tspan x="1.112" y="224.31" style="-inkscape-font-specification:'American Typewriter, Bold';font-variant-ligatures:normal;font-variant-caps:normal;font-variant-numeric:normal;font-feature-settings:normal;text-align:start">Adam s</tspan></text></svg>