<svg xmlns="http://www.w3.org/2000/svg" width="512" height="512" viewBox="0 0 135.467 135.467"><path d="M66.945 43.287c-1.327-6.663-3.991-13.288-8.838-18.18-2.952-2.882-6.564-5.382-10.719-6.032-2.369-.408-5.016-.892-6.562-2.933-1.249-1.361 1.15-2.77 2.419-2.603 3.422.017 6.586 1.634 9.553 3.176 5.697 3.13 10.009 8.486 12.365 14.5.972 1.893 1.2 4.06 1.777 6.092.48 1.96.94 3.927 1.463 5.877-.484.054-.969.128-1.458.103z" fill="#754a23"/><path d="M88.378 8.974c-5.258 8.515-17.344 9.96-21.488 19.408-1.707 5.347 1.513 14.802 1.513 14.802s5.808-.906 10.765-2.99c4.958-2.085 8.045-4.978 11.24-8.274 2.78-4.915 1.96-10.954 1.096-16.298-.572-2.363-1.175-5.016-3.126-6.648zM74.264 130.235c-1.733.148-3.574.276 0 0z" fill="#8ac43c"/><path d="M63.27 130.484c-17.866-.551-36.358-7.764-47.149-22.537-10.085-13.73-12.379-32.687-6.543-48.6 4.268-10.587 13.446-19.792 25.11-21.384 10.003-1.828 19.833.7 29.123 4.288 5.548 2.58 7.75-.781 16.588-2.488 8.838-1.706 26.149-.501 35.049 8.858 11.426 11.965 17.89 29.793 13.377 46.117-4.962 16.233-20.411 26.79-35.888 31.774-9.56 3.09-19.644 4.297-29.667 3.972zm-41.461-63.6c2.002-4.477 2.84-9.89 7.336-12.935 3.272-1.906 7.166-9.664.444-8.374-6.616 2.843-10.871 10.304-10.933 17.37.054 1.63 1.084 4.429 3.153 3.939z" fill="#ec1a23"/><path d="M20.116 66.228c-2.1-1.807-1.454-7.879 1.383-12.989 2.22-3.999 7.5-8.11 9.85-7.67 1.419.267 1.818.826 1.673 2.34-.18 1.879-1.613 4.028-3.983 5.976-2.62 2.153-3.891 4.127-5.756 8.938-1.68 4.335-1.86 4.529-3.167 3.405z" fill="#fff" paint-order="stroke markers fill"/></svg>